<svg width="300" height="384" viewBox="0 0 300 384" fill="none" xmlns="http://www.w3.org/2000/svg">
<path d="M24 0H276V12H24V0Z" fill="white"/>
<path d="M276 12H288V24H276V12Z" fill="white"/>
<path d="M0 24H12V324H0V24Z" fill="white"/>
<path d="M288 24H300V324H288V24Z" fill="white"/>
<path d="M12 12H24V24H12V12Z" fill="white"/>
<path d="M36 48H48V60H36V48Z" fill="white"/>
<path d="M252 48H264V60H252V48Z" fill="white"/>
<path d="M36 60H48V72H36V60Z" fill="white"/>
<path d="M252 60H264V72H252V60Z" fill="white"/>
<path d="M36 72H48V84H36V72Z" fill="white"/>
<path d="M252 72H264V84H252V72Z" fill="white"/>
<path d="M36 84H48V96H36V84Z" fill="white"/>
<path d="M96 84H108V96H96V84Z" fill="white"/>
<path d="M180 84H192V96H180V84Z" fill="white"/>
<path d="M144 84H156V96H144V84Z" fill="white"/>
<path d="M144 96H156V108H144V96Z" fill="white"/>
<path d="M144 108H156V120H144V108Z" fill="white"/>
<path d="M144 120H156V132H144V120Z" fill="white"/>
<path d="M144 132H156V144H144V132Z" fill="white"/>
<path d="M132 132H144V144H132V132Z" fill="white"/>
<path d="M132 168H144V180H132V168Z" fill="white"/>
<path d="M120 168H132V180H120V168Z" fill="white"/>
<path d="M144 168H156V180H144V168Z" fill="white"/>
<path d="M156 168H168V180H156V168Z" fill="white"/>
<path d="M168 156H180V168H168V156Z" fill="white"/>
<path d="M108 156H120V168H108V156Z" fill="white"/>
<path d="M96 96H108V108H96V96Z" fill="white"/>
<path d="M180 96H192V108H180V96Z" fill="white"/>
<path d="M252 84H264V96H252V84Z" fill="white"/>
<path d="M36 96H48V108H36V96Z" fill="white"/>
<path d="M252 96H264V108H252V96Z" fill="white"/>
<path d="M36 108H48V120H36V108Z" fill="white"/>
<path d="M252 108H264V120H252V108Z" fill="white"/>
<path d="M36 120H48V132H36V120Z" fill="white"/>
<path d="M252 120H264V132H252V120Z" fill="white"/>
<path d="M36 132H48V144H36V132Z" fill="white"/>
<path d="M252 132H264V144H252V132Z" fill="white"/>
<path d="M36 144H48V156H36V144Z" fill="white"/>
<path d="M252 144H264V156H252V144Z" fill="white"/>
<path d="M36 156H48V168H36V156Z" fill="white"/>
<path d="M252 156H264V168H252V156Z" fill="white"/>
<path d="M36 168H48V180H36V168Z" fill="white"/>
<path d="M252 168H264V180H252V168Z" fill="white"/>
<path d="M36 180H48V192H36V180Z" fill="white"/>
<path d="M252 180H264V192H252V180Z" fill="white"/>
<path d="M36 192H48V204H36V192Z" fill="white"/>
<path d="M36 276H48V288H36V276Z" fill="white"/>
<path d="M48 276H60V288H48V276Z" fill="white"/>
<path d="M180 264H192V276H180V264Z" fill="white"/>
<path d="M204 264H216V276H204V264Z" fill="white"/>
<path d="M228 264H240V276H228V264Z" fill="white"/>
<path d="M192 264H204V276H192V264Z" fill="white"/>
<path d="M216 264H228V276H216V264Z" fill="white"/>
<path d="M240 264H252V276H240V264Z" fill="white"/>
<path d="M24 324H276V336H24V324Z" fill="white"/>
<path d="M252 192H264V204H252V192Z" fill="white"/>
<path d="M48 204H252V216H48V204Z" fill="white"/>
<path d="M48 36H60V48H48V36Z" fill="white"/>
<path d="M60 36H72V48H60V36Z" fill="white"/>
<path d="M72 36H84V48H72V36Z" fill="white"/>
<path d="M84 36H96V48H84V36Z" fill="white"/>
<path d="M96 36H108V48H96V36Z" fill="white"/>
<path d="M108 36H120V48H108V36Z" fill="white"/>
<path d="M120 36H132V48H120V36Z" fill="white"/>
<path d="M132 36H144V48H132V36Z" fill="white"/>
<path d="M144 36H156V48H144V36Z" fill="white"/>
<path d="M156 36H168V48H156V36Z" fill="white"/>
<path d="M168 36H180V48H168V36Z" fill="white"/>
<path d="M180 36H192V48H180V36Z" fill="white"/>
<path d="M192 36H204V48H192V36Z" fill="white"/>
<path d="M204 36H216V48H204V36Z" fill="white"/>
<path d="M216 36H228V48H216V36Z" fill="white"/>
<path d="M228 36H240V48H228V36Z" fill="white"/>
<path d="M240 36H252V48H240V36Z" fill="white"/>
<path d="M12 324H24V384H12V324Z" fill="white"/>
<path d="M276 324H288V384H276V324Z" fill="white"/>
<path d="M24 372H36V384H24V372Z" fill="white"/>
<path d="M36 372H48V384H36V372Z" fill="white"/>
<path d="M48 372H60V384H48V372Z" fill="white"/>
<path d="M60 372H72V384H60V372Z" fill="white"/>
<path d="M72 372H84V384H72V372Z" fill="white"/>
<path d="M84 372H96V384H84V372Z" fill="white"/>
<path d="M96 372H108V384H96V372Z" fill="white"/>
<path d="M108 372H120V384H108V372Z" fill="white"/>
<path d="M120 372H132V384H120V372Z" fill="white"/>
<path d="M132 372H144V384H132V372Z" fill="white"/>
<path d="M144 372H156V384H144V372Z" fill="white"/>
<path d="M156 372H168V384H156V372Z" fill="white"/>
<path d="M168 372H180V384H168V372Z" fill="white"/>
<path d="M180 372H192V384H180V372Z" fill="white"/>
<path d="M192 372H204V384H192V372Z" fill="white"/>
<path d="M204 372H216V384H204V372Z" fill="white"/>
<path d="M216 372H228V384H216V372Z" fill="white"/>
<path d="M228 372H240V384H228V372Z" fill="white"/>
<path d="M240 372H252V384H240V372Z" fill="white"/>
<path d="M252 372H264V384H252V372Z" fill="white"/>
<path d="M264 372H276V384H264V372Z" fill="white"/>
<path d="M276 372H288V384H276V372Z" fill="white"/>
</svg>
