<svg width="1000" height="1000" viewBox="0 0 1000 1000" fill="none" xmlns="http://www.w3.org/2000/svg">
<rect width="1000" height="1000" fill="black"/>
<path fill-rule="evenodd" clip-rule="evenodd" d="M500 22C763.997 22 978 236.003 978 500C978 763.997 763.997 978 500 978C236.003 978 22 763.997 22 500C22 236.003 236.003 22 500 22ZM189.685 810.193C214.54 794.674 240.911 780.949 268.64 769.299C240.353 697.765 222.958 612.032 220.804 519.631H61.6578C66.6449 632.939 114.601 735.114 189.685 810.193ZM305.148 755.335C360.604 736.305 419.61 725.373 480.37 723.458V519.628H260.025C262.139 607.32 278.537 688.233 305.148 755.335ZM519.63 723.458C580.392 725.373 639.403 736.305 694.852 755.335C721.463 688.23 737.86 607.322 739.975 519.629H519.63V723.458ZM731.355 769.259C759.083 780.949 785.495 794.634 810.31 810.153C885.356 735.068 933.352 632.899 938.295 519.59L779.19 519.63C777.036 612.03 759.681 697.735 731.355 769.259ZM780.188 837.642C759.721 825.473 738.137 814.582 715.675 805.126C695.288 847.456 669.396 886.315 637.917 916.636C690.46 899.242 738.573 872.231 780.188 837.642ZM678.97 791.242C628.581 774.285 575.12 764.551 519.62 762.676V937.265C586.606 927.091 641.977 866.607 678.97 791.242ZM480.37 762.676C424.834 764.551 371.372 774.285 321.019 791.242C358.003 866.606 413.34 927.091 480.37 937.264V762.676ZM284.322 805.125C261.861 814.58 240.277 825.472 219.81 837.641C261.422 872.23 309.537 899.24 362.084 916.635C330.606 886.314 304.67 847.456 284.322 805.125ZM810.315 189.805C785.46 205.324 759.089 219.049 731.36 230.699C759.646 302.233 777.042 387.966 779.196 480.367H938.301C933.354 367.059 885.358 264.884 810.315 189.805ZM694.852 244.663C639.396 263.693 580.39 274.625 519.63 276.54V480.37H739.975C737.821 392.678 721.463 311.765 694.852 244.663ZM480.37 276.54C419.608 274.625 360.597 263.693 305.148 244.663C278.537 311.768 262.14 392.676 260.025 480.369H480.37V276.54ZM268.645 230.739C240.917 219.049 214.505 205.364 189.69 189.845C114.604 264.89 66.6481 367.069 61.664 480.367H220.769C222.963 387.967 240.319 302.263 268.645 230.739ZM219.812 162.356C240.279 174.525 261.863 185.416 284.324 194.872C304.712 152.542 330.604 113.683 362.083 83.3614C309.539 100.756 261.427 127.766 219.812 162.356ZM321.03 208.756C371.419 225.713 424.88 235.447 480.38 237.322V62.7333C413.394 72.9068 358.023 133.391 321.03 208.756ZM519.63 237.322C575.166 235.447 628.628 225.713 678.981 208.756C641.997 133.392 586.66 72.9069 519.63 62.7343V237.322ZM715.678 194.873C738.139 185.418 759.723 174.526 780.19 162.357C738.578 127.768 690.463 100.758 637.916 83.3625C669.394 113.684 695.33 152.542 715.678 194.873Z" fill="white"/>
</svg>
