<svg width="1000" height="1000" viewBox="0 0 1000 1000" fill="none" xmlns="http://www.w3.org/2000/svg">
<rect width="1000" height="1000" fill="black"/>
<path d="M980.5 500C980.5 234.622 765.378 19.5 500 19.5C234.622 19.5 19.5 234.622 19.5 500C19.5 765.378 234.622 980.5 500 980.5C765.378 980.5 980.5 765.378 980.5 500ZM64.278 522.131H218.365C220.747 612.895 237.793 697.208 265.421 767.945C239.018 779.174 213.849 792.28 190.053 807.02C116.773 733.078 69.8173 633.046 64.278 522.131ZM477.87 721.04C418.54 723.145 360.895 733.813 306.599 752.199C280.878 686.49 264.926 607.607 262.59 522.128H477.87V721.04ZM737.41 522.129C735.073 607.609 719.122 686.487 693.401 752.199C639.112 733.813 581.462 723.145 522.13 721.04V522.129H737.41ZM809.942 806.979C786.177 792.239 760.974 779.169 734.574 767.909C762.241 697.179 779.247 612.893 781.629 522.13L935.676 522.091C930.178 633.004 883.186 733.031 809.942 806.979ZM716.889 808.355C737.346 817.074 757.059 826.991 775.844 837.982C737.833 869.058 694.483 893.822 647.354 910.737C675.117 881.951 698.266 846.567 716.889 808.355ZM522.12 934.324V765.267C575.461 767.308 626.882 776.646 675.457 792.705C639.138 865.535 585.843 923.195 522.12 934.324ZM477.87 934.323C414.106 923.196 360.843 865.535 324.532 792.705C373.073 776.646 424.495 767.307 477.87 765.267V934.323ZM283.107 808.355C301.698 846.569 324.879 881.951 352.646 910.736C305.515 893.82 262.162 869.056 224.154 837.981C242.938 826.99 262.651 817.073 283.107 808.355ZM734.578 232.053C760.982 220.824 786.15 207.718 809.946 192.979C883.188 266.921 930.181 366.953 935.682 477.867H781.635C779.253 387.103 762.207 302.79 734.578 232.053ZM522.13 477.87V278.957C581.46 276.853 639.105 266.185 693.401 247.799C719.121 313.507 735.035 392.39 737.409 477.87H522.13ZM262.59 477.869C264.927 392.389 280.878 313.511 306.599 247.799C360.888 266.185 418.538 276.853 477.87 278.957V477.869H262.59ZM64.2841 477.867C69.8207 366.962 116.776 266.927 190.057 193.019C213.822 207.759 239.026 220.828 265.426 232.089C237.759 302.819 220.751 387.104 218.331 477.867H64.2841ZM352.646 89.2607C324.882 118.047 301.734 153.431 283.111 191.643C262.654 182.924 242.941 173.007 224.156 162.016C262.167 130.94 305.517 106.176 352.646 89.2607ZM477.88 65.6744V234.73C424.539 232.69 373.118 223.352 324.543 207.293C360.862 134.463 414.157 76.803 477.88 65.6744ZM522.13 234.731V65.675C585.894 76.802 639.157 134.463 675.468 207.293C626.927 223.352 575.505 232.691 522.13 234.731ZM647.354 89.262C694.485 106.178 737.838 130.942 775.846 162.017C757.062 173.008 737.349 182.924 716.893 191.643C698.302 153.429 675.121 118.047 647.354 89.262Z" fill="white" stroke="white" stroke-width="5"/>
<path d="M309.5 258.5L414.5 279.5L497.5 282L598.5 279.5L692 255.5C692 255.5 739.203 402.424 737.5 498.5C735.178 629.5 692 717.5 692 717.5C692 717.5 554 718.5 501 718.5C426.213 718.5 309.5 717.5 309.5 717.5C309.5 717.5 263.843 586.107 262.5 498.5C261.045 403.607 309.5 258.5 309.5 258.5Z" fill="black"/>
<path d="M419.04 554.145L522.745 553.078L522.389 518.509L505.105 518.687L504.572 466.835L487.287 467.013L486.931 432.444L469.647 432.622L470.003 467.191L452.719 467.368L453.075 501.937L435.791 502.115L436.147 536.683L418.862 536.861L419.04 554.145ZM420.108 657.85L420.286 675.134L316.581 676.202L316.403 658.918L333.687 658.74L333.509 641.456L350.793 641.278L350.615 623.994L367.899 623.816L367.544 589.247L384.828 589.069L384.472 554.501L401.756 554.323L401.4 519.755L418.684 519.577L418.151 467.724L435.435 467.546L435.079 432.978L452.363 432.8L452.007 398.232L469.291 398.054L468.936 363.486L486.22 363.308L485.864 328.739L503.148 328.561L502.97 311.277L520.254 311.099L520.61 345.668L537.894 345.49L538.25 380.058L555.534 379.88L556.068 431.733L573.352 431.555L573.708 466.123L590.992 465.945L591.348 500.513L608.632 500.335L609.166 552.188L626.45 552.01L626.806 586.578L644.09 586.4L644.446 620.969L661.73 620.791L662.086 655.359L696.655 655.003L696.833 672.288L541.275 673.889L541.097 656.605L558.381 656.427L557.492 570.006L401.934 571.607L402.468 623.46L385.184 623.638L385.362 640.922L402.646 640.744L402.824 658.028L420.108 657.85Z" fill="white"/>
</svg>
