<svg width="1000" height="1000" viewBox="0 0 1000 1000" fill="none" xmlns="http://www.w3.org/2000/svg">
<g clip-path="url(#clip0_164_12)">
<rect width="1000" height="1000" fill="white"/>
<rect width="1000" height="1000" rx="75" fill="black"/>
<path d="M491.878 598.673V551.897H445.103V458.346H398.327V411.571H351.551V318.019H304.776V271.244H491.878V318.019H445.103V364.795H491.878V458.346H538.654V411.571H585.429V364.795H632.205V271.244H725.756V318.019H678.981V364.795H632.205V411.571H585.429V551.897H632.205V598.673H678.981V692.224H772.532V739H538.654V692.224H585.429V645.449H538.654V598.673H491.878ZM398.327 598.673H445.103V645.449H398.327V692.224H445.103V739H258V692.224H351.551V645.449H398.327V598.673Z" fill="white"/>
</g>
<defs>
<clipPath id="clip0_164_12">
<rect width="1000" height="1000" fill="white"/>
</clipPath>
</defs>
</svg>
