<svg width="1000" height="1000" viewBox="0 0 1000 1000" fill="none" xmlns="http://www.w3.org/2000/svg">
<rect width="1000" height="1000" fill="black"/>
<path d="M980.5 500C980.5 234.622 765.378 19.5 500 19.5C234.622 19.5 19.5 234.622 19.5 500C19.5 765.378 234.622 980.5 500 980.5C765.378 980.5 980.5 765.378 980.5 500ZM64.278 522.131H218.365C220.747 612.895 237.793 697.208 265.421 767.945C239.018 779.174 213.849 792.28 190.053 807.02C116.773 733.078 69.8173 633.046 64.278 522.131ZM477.87 721.04C418.54 723.145 360.895 733.813 306.599 752.199C280.878 686.49 264.926 607.607 262.59 522.128H477.87V721.04ZM737.41 522.129C735.073 607.609 719.122 686.487 693.401 752.199C639.112 733.813 581.462 723.145 522.13 721.04V522.129H737.41ZM809.942 806.979C786.177 792.239 760.974 779.169 734.574 767.909C762.241 697.179 779.247 612.893 781.629 522.13L935.676 522.091C930.178 633.004 883.186 733.031 809.942 806.979ZM716.889 808.355C737.346 817.074 757.059 826.991 775.844 837.982C737.833 869.058 694.483 893.822 647.354 910.737C675.117 881.951 698.266 846.567 716.889 808.355ZM522.12 934.324V765.267C575.461 767.308 626.882 776.646 675.457 792.705C639.138 865.535 585.843 923.195 522.12 934.324ZM477.87 934.323C414.106 923.196 360.843 865.535 324.532 792.705C373.073 776.646 424.495 767.307 477.87 765.267V934.323ZM283.107 808.355C301.698 846.569 324.879 881.951 352.646 910.736C305.515 893.82 262.162 869.056 224.154 837.981C242.938 826.99 262.651 817.073 283.107 808.355ZM734.578 232.053C760.982 220.824 786.15 207.718 809.946 192.979C883.188 266.921 930.181 366.953 935.682 477.867H781.635C779.253 387.103 762.207 302.79 734.578 232.053ZM522.13 477.87V278.957C581.46 276.853 639.105 266.185 693.401 247.799C719.121 313.507 735.035 392.39 737.409 477.87H522.13ZM262.59 477.869C264.927 392.389 280.878 313.511 306.599 247.799C360.888 266.185 418.538 276.853 477.87 278.957V477.869H262.59ZM64.2841 477.867C69.8207 366.962 116.776 266.927 190.057 193.019C213.822 207.759 239.026 220.828 265.426 232.089C237.759 302.819 220.751 387.104 218.331 477.867H64.2841ZM352.646 89.2607C324.882 118.047 301.734 153.431 283.111 191.643C262.654 182.924 242.941 173.007 224.156 162.016C262.167 130.94 305.517 106.176 352.646 89.2607ZM477.88 65.6744V234.73C424.539 232.69 373.118 223.352 324.543 207.293C360.862 134.463 414.157 76.803 477.88 65.6744ZM522.13 234.731V65.675C585.894 76.802 639.157 134.463 675.468 207.293C626.927 223.352 575.505 232.691 522.13 234.731ZM647.354 89.262C694.485 106.178 737.838 130.942 775.846 162.017C757.062 173.008 737.349 182.924 716.893 191.643C698.302 153.429 675.121 118.047 647.354 89.262Z" fill="white" stroke="white" stroke-width="5"/>
<path d="M309.5 258.5L414.5 279.5L497.5 282L598.5 279.5L692 255.5C692 255.5 739.203 402.424 737.5 498.5C735.178 629.5 692 717.5 692 717.5C692 717.5 554 718.5 501 718.5C426.213 718.5 309.5 717.5 309.5 717.5C309.5 717.5 263.843 586.107 262.5 498.5C261.045 403.607 309.5 258.5 309.5 258.5Z" fill="black"/>
<path d="M440.515 369.375L441.226 438.512L372.09 439.224L371.378 370.087L405.946 369.731L405.591 335.163L474.727 334.451L475.083 369.019L440.515 369.375ZM511.787 576.074L477.218 576.429L476.151 472.724L510.719 472.368L510.363 437.8L544.931 437.444L544.22 368.308L509.651 368.663L509.296 334.095L578.432 333.383L578.788 367.952L613.356 367.596L614.068 436.733L579.5 437.088L580.212 506.225L511.075 506.937L511.787 576.074ZM443.006 611.354L512.142 610.642L512.854 679.779L443.717 680.49L443.006 611.354Z" fill="white"/>
</svg>
